# xmcd CD database file
#
# Track frame offsets:
#	150
#	13179
#	25101
#	40563
#	55052
#	69531
#	84341
#	103493
#	119032
#	133358
#	145809
#	160384
#	170135
#	186023
#	195387
#	206475
#	218299
#
# Disc length: 3150 seconds
#
# Revision: 0
# Processed by: cddbd v1.5PL3 Copyright (c) Steve Scherf et al.
# Submitted via: CDex 1.51
#
DISCID=f40c4c11
DTITLE=Sojiro - Heart Obtained  Vol 07
DYEAR=1991
DGENRE=New Age
TTITLE0=(Japanese Title)
TTITLE1=Spring Wind
TTITLE2=Song of Londonderry
TTITLE3=ROHHO Low MONDO
TTITLE4=Sojiro - My Home of Peak
TTITLE5=of Hometown
TTITLE6=Nostalgic Kentucky
TTITLE7=Home, Sweet Home
TTITLE8=Old Black Joe
TTITLE9=Blond Jennie
TTITLE10=Trip
TTITLE11=1000 Grass of Yard
TTITLE12=It is about Hometown
TTITLE13=Red SARAFAN
TTITLE14=Light
TTITLE15=Constellation of Winter
TTITLE16=Light of Firefly
EXTD=YEAR: 1991
EXTT0=
EXTT1=
EXTT2=
EXTT3=
EXTT4=
EXTT5=
EXTT6=
EXTT7=
EXTT8=
EXTT9=
EXTT10=
EXTT11=
EXTT12=
EXTT13=
EXTT14=
EXTT15=
EXTT16=
PLAYORDER=
